<?xml version="1.0" encoding="UTF-8"?>
<svg version="1.1" xmlns="http://www.w3.org/2000/svg" width="512" height="512">
<path d="M0 0 C9.13182819 5.8463027 17.10479854 12.58253366 25 20 C26.36914087 21.19425061 27.74366104 22.3823797 29.125 23.5625 C36.32789182 29.83741189 42.80924847 36.73982882 49 44 C50.02156944 45.1814792 51.04376038 46.36242115 52.06640625 47.54296875 C53.16948711 48.82012573 54.27235031 50.09747075 55.375 51.375 C55.91165283 51.99463623 56.44830566 52.61427246 57.0012207 53.25268555 C60.88568921 57.77137843 60.88568921 57.77137843 62 60 C66.05330945 58.39251826 68.71745319 55.50365479 71.69140625 52.43359375 C72.5094297 51.60421043 72.5094297 51.60421043 73.34397888 50.7580719 C75.66421803 48.40541915 77.9727025 46.04137021 80.28149414 43.67749023 C87.52224516 36.27912871 94.79310537 29.33857794 103 23 C103.66652588 22.47978271 104.33305176 21.95956543 105.01977539 21.42358398 C124.51031646 6.41689359 145.49331119 -6.82812445 171 -5 C180.84817206 -3.38798834 188.09086027 2.05282909 194.3984375 9.61328125 C208.22829265 30.22313855 203.84326377 60.065745 199.43017578 82.95556641 C195.69209483 101.04526128 189.87368452 118.51663816 184 136 C184.57685547 136.03738281 185.15371094 136.07476562 185.74804688 136.11328125 C192.88246793 136.68854682 199.58851368 138.17720152 206.5 140 C207.66982422 140.30760254 208.83964844 140.61520508 210.04492188 140.93212891 C239.32482617 148.82514332 278.16572088 159.872865 294.88671875 187.83984375 C299.42260211 196.64104901 300.71158741 206.05695052 298.30859375 215.8046875 C290.8719971 235.78081741 272.55239306 247.41672418 254 256 C231.49198172 266.00952173 201.95096155 278 177 278 C177.21615967 278.76739502 177.43231934 279.53479004 177.6550293 280.32543945 C182.71128074 298.41110695 187.09326327 316.42175542 190 335 C190.13132324 335.83917969 190.26264648 336.67835938 190.39794922 337.54296875 C193.94610619 361.31014644 195.29100744 391.14403831 180.3125 411.4375 C173.93065672 418.84284644 165.72990436 423.44850976 155.94921875 424.25 C134.72552236 425.00545972 116.75097511 414.2015461 101 401 C100.43716309 400.53722656 99.87432617 400.07445312 99.29443359 399.59765625 C87.6144052 389.98532176 76.75855296 379.56941846 67 368 C65.98419896 366.82324578 64.96714856 365.6475695 63.94921875 364.47265625 C62.84097906 363.19024827 61.7329074 361.90769507 60.625 360.625 C60.0880249 360.0050415 59.5510498 359.38508301 58.99780273 358.74633789 C55.11401484 354.22802969 55.11401484 354.22802969 54 352 C50.4567789 353.5024543 48.22928476 355.56252265 45.5625 358.3125 C44.82128906 359.07175781 44.08007812 359.83101563 43.31640625 360.61328125 C42.55199219 361.40089844 41.78757813 362.18851562 41 363 C40.21367187 363.78503906 39.42734375 364.57007813 38.6171875 365.37890625 C36.70674378 367.29220138 34.81834981 369.21853887 32.94140625 371.1640625 C25.13042432 379.20327989 17.05269295 386.39346025 8 393 C7.36835938 393.46535156 6.73671875 393.93070312 6.0859375 394.41015625 C-12.38674168 407.91508306 -32.47505951 418.9857199 -56 417 C-66.15530977 415.13061462 -73.99417255 408.64964867 -79.875 400.3125 C-94.78353349 373.98466427 -86.10317967 336.45058114 -78.79296875 309.1875 C-75.63654614 297.98906151 -71.82735193 286.98350293 -68 276 C-69.21816406 275.896875 -70.43632813 275.79375 -71.69140625 275.6875 C-107.02061594 271.71993814 -152.50359364 256.90592561 -175.98046875 228.61328125 C-182.53245224 219.34343795 -184.09664639 210.26898702 -183 199 C-180.10196371 185.03839121 -169.10223542 174.56605181 -157.73046875 166.75390625 C-130.25109218 149.19023936 -97.40446876 140.40686504 -65.6328125 134.54296875 C-63.035739 134.12509411 -63.035739 134.12509411 -61 133 C-61.27880005 132.00709961 -61.27880005 132.00709961 -61.56323242 130.99414062 C-86.65169019 41.12411501 -86.65169019 41.12411501 -66.625 4.484375 C-61.66935488 -3.64934688 -55.05895162 -8.34495795 -46.04296875 -11.3046875 C-29.41490706 -15.10416758 -13.91532511 -8.60034259 0 0 Z M-47.1875 14 C-62.09330577 38.67167852 -53.37836009 75.6564555 -47.00390625 101.76806641 C-44.65233749 111.28306124 -42.25394222 120.74501793 -39 130 C-29.00324793 129.37235628 -19.02128633 128.63696872 -9.04394531 127.75268555 C-7.58036672 127.62435059 -6.11648534 127.49942931 -4.65234375 127.37768555 C-2.49407103 127.19806739 -0.33689259 127.00837442 1.8203125 126.81640625 C3.08117676 126.70756104 4.34204102 126.59871582 5.64111328 126.48657227 C10.4141331 125.79514702 13.09894001 125.08032017 16.21875 121.33984375 C16.99002075 120.21308254 17.74974049 119.07835935 18.5 117.9375 C19.37355433 116.66347618 20.24999419 115.39142735 21.12890625 114.12109375 C21.59184082 113.44933105 22.05477539 112.77756836 22.53173828 112.08544922 C25.06865871 108.48212791 27.75248181 104.99358157 30.4375 101.5 C30.97898682 100.78932373 31.52047363 100.07864746 32.07836914 99.34643555 C34.76741964 95.83294033 37.49964438 92.37387969 40.34375 88.984375 C40.86525635 88.35337891 41.3867627 87.72238281 41.92407227 87.07226562 C42.90917386 85.88613911 43.90908459 84.71210729 44.92553711 83.55273438 C46.43399899 81.80891308 46.43399899 81.80891308 48 79 C47.31565045 74.17110652 43.28445937 70.53524806 40.125 67 C39.54564697 66.34281982 38.96629395 65.68563965 38.36938477 65.00854492 C36.58894544 62.99710613 34.79707384 60.99658245 33 59 C32.21230225 58.12335693 32.21230225 58.12335693 31.40869141 57.22900391 C2.80962682 24.53517787 2.80962682 24.53517787 -35.96875 8.8671875 C-40.57761315 9.16853624 -43.83650847 10.93623631 -47.1875 14 Z M111.28808594 44.51416016 C107.97087209 47.5087878 104.7155345 50.56628583 101.46679688 53.63476562 C99.35590859 55.59949387 97.17443314 57.48113888 95 59.375 C90.76376202 63.1911152 86.75517453 67.19688254 82.8125 71.3125 C82.22275391 71.91175293 81.63300781 72.51100586 81.02539062 73.12841797 C79.18484897 75.02705564 79.18484897 75.02705564 77 78 C77.3030195 81.31733207 78.84525276 83.48391327 80.7734375 86.1328125 C81.34594238 86.93058105 81.91844727 87.72834961 82.50830078 88.55029297 C83.12431152 89.39994629 83.74032227 90.24959961 84.375 91.125 C90.59736793 99.84270522 96.32273887 108.75816267 101.75830078 117.98388672 C102.37294189 118.98186279 102.37294189 118.98186279 103 120 C103.53512207 121.0401123 104.07024414 122.08022461 104.62158203 123.15185547 C107.30680495 126.36739751 108.88529174 126.82635455 112.98895264 127.23834229 C113.77119202 127.28859558 114.5534314 127.33884888 115.359375 127.390625 C116.18141418 127.46617615 117.00345337 127.54172729 117.85040283 127.61956787 C120.48210399 127.85591917 123.11501934 128.05395783 125.75 128.25 C127.475484 128.39581555 129.20075051 128.54422924 130.92578125 128.6953125 C133.47697049 128.91824607 136.028128 129.13908495 138.58044434 129.34875488 C146.42000174 129.99871186 154.20458041 130.94877879 162 132 C170.10212571 111.65155785 176.39626725 90.61971116 180 69 C180.19207031 67.93910156 180.38414062 66.87820312 180.58203125 65.78515625 C181.21115002 60.08780962 181.22505556 54.41536714 181.25 48.6875 C181.270625 47.51509766 181.29125 46.34269531 181.3125 45.13476562 C181.35159819 36.38165866 180.6294523 27.14507408 175 20 C156.39521363 5.92070221 125.08072756 32.31479288 111.28808594 44.51416016 Z M61 96 C60.47212891 96.69391846 60.47212891 96.69391846 59.93359375 97.40185547 C58.29031888 99.56053085 56.64547695 101.71800267 55 103.875 C54.41001221 104.6484375 53.82002441 105.421875 53.2121582 106.21875 C49.31482194 111.31506179 45.35901454 116.34940905 41.29296875 121.3125 C39.89863332 122.77798166 39.89863332 122.77798166 40 124 C53.2 124 66.4 124 80 124 C78.40216595 120.00541488 76.96533118 117.21850305 74.59375 113.734375 C73.93246094 112.76242188 73.27117187 111.79046875 72.58984375 110.7890625 C71.90019531 109.78617188 71.21054687 108.78328125 70.5 107.75 C69.81035156 106.73164063 69.12070312 105.71328125 68.41015625 104.6640625 C65.37430834 99.61749457 65.37430834 99.61749457 61 96 Z M49.85267639 144.71534729 C35.33708944 143.53423962 35.33708944 143.53423962 21.82763672 147.28369141 C18.28842821 150.75142199 16.69076207 154.94968943 15.01708984 159.53466797 C13.12218135 164.12775149 10.25806401 168.15731921 7.5625 172.3125 C6.46187527 174.08639827 5.36681946 175.86376385 4.27734375 177.64453125 C3.46692627 178.96831787 3.46692627 178.96831787 2.64013672 180.31884766 C2.0988916 181.20362793 1.55764648 182.0884082 1 183 C0.44973145 183.89380371 -0.10053711 184.78760742 -0.66748047 185.70849609 C-2.25309156 188.29614169 -3.81704564 190.89563189 -5.375 193.5 C-5.85767334 194.28286377 -6.34034668 195.06572754 -6.83764648 195.87231445 C-7.27020752 196.60538818 -7.70276855 197.33846191 -8.1484375 198.09375 C-8.72343994 199.04797852 -8.72343994 199.04797852 -9.31005859 200.02148438 C-10.78848492 204.26110466 -8.63499988 208.13486898 -6.8046875 211.97265625 C-6.34320313 212.94162842 -5.88171875 213.91060059 -5.40625 214.90893555 C-4.9009375 215.94961182 -4.395625 216.99028809 -3.875 218.0625 C-3.35164062 219.14635986 -2.82828125 220.23021973 -2.2890625 221.34692383 C1.96096126 230.05736241 6.42663841 238.64333762 11 247.1875 C11.32051331 247.7877298 11.64102661 248.38795959 11.97125244 249.00637817 C13.94408585 252.69244832 15.91675935 256.37509927 18 260 C18.57596924 261.09296387 19.15193848 262.18592773 19.74536133 263.31201172 C21.79726107 266.30170301 21.79726107 266.30170301 25.3269043 266.78881836 C27.30557495 266.81407593 27.30557495 266.81407593 29.32421875 266.83984375 C30.05053497 266.85746262 30.7768512 266.87508148 31.525177 266.89323425 C33.91354079 266.94156616 36.29868922 266.94396787 38.6875 266.9375 C40.35050542 266.94155297 42.01351004 266.94595163 43.67651367 266.95068359 C46.23758906 266.95604333 48.79821941 266.95689613 51.35926819 266.94293213 C56.26754131 266.92981702 61.1023898 267.107727 65.99333191 267.515625 C81.15747134 269.12925528 81.15747134 269.12925528 94.76123047 263.84912109 C99.86876358 258.05529908 103.16516504 251.41957375 106.36767578 244.43994141 C108.92149144 239.05805946 112.07275588 234.0700331 115.1875 229 C116.68364149 226.47066435 118.1616359 223.93263758 119.62255859 221.3828125 C120.56073768 219.75987243 121.52314717 218.15075494 122.50634766 216.5546875 C122.97476074 215.77351563 123.44317383 214.99234375 123.92578125 214.1875 C124.34899658 213.50042969 124.77221191 212.81335938 125.20825195 212.10546875 C126.53487016 208.57763791 125.38870872 205.96205894 124.02294922 202.58178711 C123.62092285 201.7388208 123.21889648 200.89585449 122.8046875 200.02734375 C122.11246094 198.5738855 122.11246094 198.5738855 121.40625 197.09106445 C120.9009375 196.05038818 120.395625 195.00971191 119.875 193.9375 C119.35164062 192.85364014 118.82828125 191.76978027 118.2890625 190.65307617 C114.03903874 181.94263759 109.57336159 173.35666238 105 164.8125 C104.67948669 164.2122702 104.35897339 163.61204041 104.02874756 162.99362183 C102.05591415 159.30755168 100.08324065 155.62490073 98 152 C97.42403076 150.90703613 96.84806152 149.81407227 96.25463867 148.68798828 C94.20273893 145.69829699 94.20273893 145.69829699 90.6730957 145.21118164 C89.35398193 145.19434326 88.03486816 145.17750488 86.67578125 145.16015625 C85.58589905 145.13433975 85.58589905 145.13433975 84.47399902 145.10800171 C82.08603525 145.06068561 79.70089491 145.05843331 77.3125 145.0625 C75.65388453 145.05236964 73.99527413 145.04137331 72.33666992 145.02954102 C69.78024054 145.01544212 67.22438389 145.00789652 64.66792297 145.01628113 C59.71962943 145.03186764 54.79595166 144.93551146 49.85267639 144.71534729 Z M120 148 C125.81111897 159.76832751 131.84655871 171.40722047 138 183 C138.66 183 139.32 183 140 183 C141.83794343 179.23036773 143.67087871 175.45835433 145.49926758 171.68408203 C146.12160289 170.40119357 146.74528765 169.1189588 147.37036133 167.83740234 C148.27002188 165.99227512 149.16475917 164.14483015 150.05859375 162.296875 C150.59798584 161.18666992 151.13737793 160.07646484 151.69311523 158.93261719 C152.74099406 156.58120293 153.50571566 154.51149883 154 152 C142.67103754 150.1878219 131.47185825 148.55080114 120 148 Z M-13.73828125 148.65625 C-14.80498047 148.79160156 -15.87167969 148.92695313 -16.97070312 149.06640625 C-18.07349609 149.20949219 -19.17628906 149.35257813 -20.3125 149.5 C-21.43462891 149.64308594 -22.55675781 149.78617188 -23.71289062 149.93359375 C-26.47562877 150.28628373 -29.23796568 150.6418468 -32 151 C-30.70966779 154.56298475 -29.41749914 158.12530081 -28.125 161.6875 C-27.76019531 162.69490234 -27.39539063 163.70230469 -27.01953125 164.74023438 C-26.66503906 165.71669922 -26.31054688 166.69316406 -25.9453125 167.69921875 C-25.62062988 168.59471436 -25.29594727 169.49020996 -24.96142578 170.4128418 C-24.01502052 172.95958039 -23.01993331 175.48191561 -22 178 C-19.1584923 175.32599893 -17.05689118 172.73983962 -15.08984375 169.375 C-14.57486328 168.50359375 -14.05988281 167.6321875 -13.52929688 166.734375 C-13.00400391 165.83203125 -12.47871094 164.9296875 -11.9375 164 C-10.88612367 162.20715364 -9.8328054 160.41544435 -8.77734375 158.625 C-8.31577881 157.83351562 -7.85421387 157.04203125 -7.37866211 156.2265625 C-6 154 -6 154 -4.32641602 151.8359375 C-2.80479188 150.10729922 -2.80479188 150.10729922 -3 148 C-6.64475461 147.93018826 -10.12385 148.19236578 -13.73828125 148.65625 Z M-133 178 C-133.63953613 178.32323242 -134.27907227 178.64646484 -134.93798828 178.97949219 C-144.91670492 184.10790447 -155.81698815 190.63397629 -161 201 C-162.24101034 205.18840988 -162.30102207 207.98912321 -160.5625 211.9375 C-147.73969482 234.42072935 -112.51422032 243.64538909 -89.48730469 249.96386719 C-79.38669174 252.59794302 -69.41046763 255.0555452 -59 256 C-58.70867187 255.32646484 -58.41734375 254.65292969 -58.1171875 253.95898438 C-48.29320996 231.29896072 -48.29320996 231.29896072 -43.625 222.0625 C-43.3060376 221.42965088 -42.9870752 220.79680176 -42.65844727 220.14477539 C-41.27278542 217.42047891 -39.8479667 214.72641263 -38.36328125 212.0546875 C-37.65751953 210.75917969 -37.65751953 210.75917969 -36.9375 209.4375 C-36.33228516 208.38369141 -36.33228516 208.38369141 -35.71484375 207.30859375 C-33.40077683 199.83529566 -38.34659292 191.78739069 -41.1875 185.0625 C-42.18920387 182.65174894 -43.18921021 180.24029182 -44.1875 177.828125 C-44.67089844 176.66216797 -45.15429688 175.49621094 -45.65234375 174.29492188 C-48.25888195 167.92212486 -50.65125218 161.47144442 -53 155 C-78.68339125 154.25644133 -110.48220947 166.50326093 -133 178 Z M176 156 C171.82913167 164.20888884 167.88092166 172.49701791 164.0625 180.875 C158.2553231 193.60796046 158.2553231 193.60796046 155.6328125 198.5859375 C155.29757568 199.22289551 154.96233887 199.85985352 154.61694336 200.51611328 C153.76384154 202.10758403 152.88881904 203.68725339 152.01171875 205.265625 C150.10860551 210.40917431 152.26198478 215.07429907 154.29296875 219.9296875 C154.98749146 221.60744263 154.98749146 221.60744263 155.69604492 223.3190918 C156.43431519 225.07926636 156.43431519 225.07926636 157.1875 226.875 C158.18921031 229.29486564 159.18921665 231.71543735 160.1875 234.13671875 C160.67089844 235.30895996 161.15429688 236.48120117 161.65234375 237.68896484 C164.24983069 244.0706891 166.64956576 250.52390905 169 257 C178.74745524 256.58828486 187.90497628 254.33061845 197.3125 251.9375 C198.10724731 251.73714142 198.90199463 251.53678284 199.7208252 251.33035278 C242.70432968 240.46915366 242.70432968 240.46915366 276 213 C277.98422853 208.9485524 278.24881337 205.92890325 277.0625 201.5 C265.94553728 180.27670753 237.09909962 171.71609131 215.97265625 165.046875 C202.95357885 161.11561697 189.51661652 157.68003143 176 156 Z M-24 229 C-25.96426835 233.03880828 -27.92035611 237.08152615 -29.875 241.125 C-30.43058594 242.26710938 -30.98617187 243.40921875 -31.55859375 244.5859375 C-32.09355469 245.69453125 -32.62851563 246.803125 -33.1796875 247.9453125 C-33.67194824 248.96125488 -34.16420898 249.97719727 -34.67138672 251.02392578 C-35.98743779 253.97186083 -37.03282156 256.9218844 -38 260 C-31.61055979 261.44277682 -25.25297753 262.39657133 -18.75 263.125 C-17.59781982 263.25624268 -17.59781982 263.25624268 -16.42236328 263.39013672 C-12.25945644 263.83903338 -8.19445236 264.0935069 -4 264 C-4.46148437 263.14921875 -4.92296875 262.2984375 -5.3984375 261.421875 C-11.16496637 250.72951962 -16.61075841 239.88660068 -22 229 C-22.66 229 -23.32 229 -24 229 Z M137 234 C132.42225252 240.17402254 128.56230755 246.90865551 124.625 253.5 C124.07972656 254.40492188 123.53445313 255.30984375 122.97265625 256.2421875 C122.45832031 257.10070312 121.94398438 257.95921875 121.4140625 258.84375 C120.71724365 260.00680664 120.71724365 260.00680664 120.00634766 261.19335938 C118.91889584 262.80093267 118.91889584 262.80093267 119 264 C128.78037544 263.47947582 138.32096895 262.53611741 148 261 C146.70966779 257.43701525 145.41749914 253.87469919 144.125 250.3125 C143.76019531 249.30509766 143.39539063 248.29769531 143.01953125 247.25976562 C142.66503906 246.28330078 142.31054688 245.30683594 141.9453125 244.30078125 C141.62062988 243.40528564 141.29594727 242.50979004 140.96142578 241.5871582 C140.01502052 239.04041961 139.01993331 236.51808439 138 234 C137.67 234 137.34 234 137 234 Z M-46 280 C-57.9164965 310.39151252 -74.05789861 352.48225407 -62.921875 385.1640625 C-60.71785123 390.00454509 -58.9274993 392.68201332 -54 395 C-38.77536888 397.48227681 -24.45908554 389.2618118 -12.32763672 380.83886719 C-8.44319876 378.02619723 -4.70948408 375.03792973 -1 372 C0.02480469 371.16855469 1.04960937 370.33710938 2.10546875 369.48046875 C22.85209461 353.32009236 22.85209461 353.32009236 39.01171875 333.14453125 C38.99189447 329.51668753 36.48536159 327.15465693 34.3125 324.4375 C28.70746207 317.13308167 23.77731377 309.51962975 18.921875 301.703125 C18.43662354 300.95538818 17.95137207 300.20765137 17.45141602 299.43725586 C16 297 16 297 14.74975586 294.06469727 C12.92412641 290.24491392 11.3092865 286.88864633 7.15838623 285.2913208 C1.54625957 283.94760871 -4.19403411 283.72961305 -9.9375 283.4375 C-11.64943704 283.31668982 -13.361042 283.19107362 -15.07226562 283.06054688 C-18.4259327 282.80800118 -21.78003319 282.57880325 -25.13623047 282.36279297 C-32.12845294 281.88098653 -39.05929788 280.96103895 -46 280 Z M139.40234375 282.8046875 C138.49045792 282.88872833 137.57857208 282.97276917 136.63905334 283.05935669 C134.71845247 283.23772426 132.7979982 283.41767677 130.87768555 283.59912109 C127.94448471 283.87434462 125.01041316 284.13847578 122.07617188 284.40234375 C120.2056651 284.5774419 118.33522003 284.75320082 116.46484375 284.9296875 C115.59077377 285.00686005 114.7167038 285.08403259 113.81614685 285.1635437 C105.87193672 285.87978437 105.87193672 285.87978437 99.78125 290.66015625 C99.00997925 291.78691746 98.25025951 292.92164065 97.5 294.0625 C96.62644567 295.33652382 95.75000581 296.60857265 94.87109375 297.87890625 C94.40815918 298.55066895 93.94522461 299.22243164 93.46826172 299.91455078 C90.93134129 303.51787209 88.24751819 307.00641843 85.5625 310.5 C85.02101318 311.21067627 84.47952637 311.92135254 83.92163086 312.65356445 C81.23258036 316.16705967 78.50035562 319.62612031 75.65625 323.015625 C74.87399048 323.96211914 74.87399048 323.96211914 74.07592773 324.92773438 C73.09082614 326.11386089 72.09091541 327.28789271 71.07446289 328.44726562 C69.56600101 330.19108692 69.56600101 330.19108692 68 333 C68.68434955 337.82889348 72.71554063 341.46475194 75.875 345 C76.45435303 345.65718018 77.03370605 346.31436035 77.63061523 346.99145508 C79.41105456 349.00289387 81.20292616 351.00341755 83 353 C83.78769775 353.87664307 83.78769775 353.87664307 84.59130859 354.77099609 C113.19037318 387.46482213 113.19037318 387.46482213 151.96875 403.1328125 C156.6016808 402.8298901 159.86505965 401.07008661 163.1875 397.9375 C177.95344302 374.0064889 169.95810476 339.57888851 164 314 C161.34945466 303.26147976 158.65667256 292.44763589 155 282 C149.75362661 281.89006684 144.61895258 282.31882052 139.40234375 282.8046875 Z M35 287 C38.69357849 293.64844128 42.40303328 299.77951717 46.6875 306 C47.26822266 306.85722656 47.84894531 307.71445312 48.44726562 308.59765625 C49.00478516 309.41105469 49.56230469 310.22445313 50.13671875 311.0625 C50.63905029 311.79597656 51.14138184 312.52945312 51.65893555 313.28515625 C52.90505808 315.13130697 52.90505808 315.13130697 55 316 C55.60585937 315.21238281 56.21171875 314.42476563 56.8359375 313.61328125 C57.23635254 313.09290283 57.63676758 312.57252441 58.04931641 312.03637695 C58.94024407 310.87784284 59.83053382 309.7188179 60.72021484 308.55932617 C63.09572078 305.46532363 65.48151371 302.38042948 67.890625 299.3125 C68.34904785 298.72557373 68.8074707 298.13864746 69.27978516 297.53393555 C70.16623514 296.39956915 71.05645427 295.26813661 71.95068359 294.13989258 C74.29448387 291.39549683 74.29448387 291.39549683 75 288 C55.2 287.505 55.2 287.505 35 287 Z " fill="#1E8FF8" transform="translate(198,50)"/>
<path d="M0 0 C0.70253906 0.00829834 1.40507812 0.01659668 2.12890625 0.02514648 C10.91791308 0.31046429 16.9883594 3.43853249 23.33203125 9.40234375 C29.44926239 16.34586755 31.52463085 24.29443059 31.125 33.4375 C29.8889612 41.47763809 26.22148885 48.95287287 19.98046875 54.26171875 C12.20342712 59.73347035 4.54761529 61.43936623 -4.875 60.4375 C-12.5161525 58.70134698 -18.81231094 55.49895085 -23.875 49.4375 C-28.98036007 41.2892944 -31.48502285 32.62341081 -29.34375 23.06640625 C-26.73496042 14.65873114 -22.07348224 8.50219023 -14.875 3.4375 C-9.87507773 0.86884221 -5.57083476 -0.08519942 0 0 Z M-5.875 24.4375 C-8.22049674 27.95574511 -8.45491403 29.29525694 -7.875 33.4375 C-5.76094948 36.08006316 -3.9496509 37.88284147 -0.9375 39.4375 C2.30055318 39.4375 4.40127901 38.09541712 7.125 36.4375 C9.46668764 32.92496854 9.62123677 31.57280644 9.125 27.4375 C7.1510809 24.02110155 5.93961541 22.71481588 2.1875 21.4375 C-1.47792141 21.4375 -3.00556023 22.20571352 -5.875 24.4375 Z " fill="#1E8FF8" transform="translate(254.875,224.5625)"/>
</svg>
