<?xml version="1.0" encoding="UTF-8"?>
<svg version="1.1" xmlns="http://www.w3.org/2000/svg" width="128" height="128">
<path d="M0 0 C1.73431274 0.00616333 1.73431274 0.00616333 3.50366211 0.01245117 C4.75598633 0.01438477 6.00831055 0.01631836 7.29858398 0.01831055 C9.26988281 0.03667969 9.26988281 0.03667969 11.28100586 0.05541992 C12.59907227 0.05606445 13.91713867 0.05670898 15.27514648 0.05737305 C25.07841463 0.1028287 25.07841463 0.1028287 26.21850586 1.24291992 C26.25943523 3.57589425 26.26092309 5.90997217 26.21850586 8.24291992 C33.63320647 8.13556083 41.04780761 8.02295688 48.4623251 7.90358067 C51.90486326 7.84832113 55.34740986 7.79489646 58.79003906 7.74560547 C62.74415112 7.68891191 66.6981153 7.62434497 70.65209961 7.55932617 C71.89374374 7.54261368 73.13538788 7.52590118 74.41465759 7.50868225 C76.12631859 7.47876442 76.12631859 7.47876442 77.87255859 7.44824219 C78.88293686 7.43269791 79.89331512 7.41715363 80.93431091 7.40113831 C83.18380475 7.49647262 83.18380475 7.49647262 84.21850586 6.24291992 C86.52752282 6.09112614 88.84217655 6.02110871 91.15600586 5.99291992 C92.4231543 5.96713867 93.69030273 5.94135742 94.99584961 5.91479492 C96.59106445 6.0772168 96.59106445 6.0772168 98.21850586 6.24291992 C100.47535827 9.62819854 100.46712715 10.77225043 100.46142578 14.73657227 C100.46604073 16.42379898 100.46604073 16.42379898 100.4707489 18.14511108 C100.45997063 19.96856552 100.45997063 19.96856552 100.44897461 21.82885742 C100.44851639 23.07792877 100.44805817 24.32700012 100.44758606 25.61392212 C100.44456221 28.25862168 100.43774336 30.90297377 100.42431641 33.54760742 C100.40736158 36.92913161 100.40350122 40.31050639 100.40426159 43.6920681 C100.40392332 46.92517921 100.39507667 50.15825927 100.38647461 53.39135742 C100.38536179 54.60294525 100.38424896 55.81453308 100.38310242 57.06283569 C100.37672256 58.19395782 100.37034271 59.32507996 100.36376953 60.49047852 C100.35995773 61.48292572 100.35614594 62.47537292 100.35221863 63.49789429 C100.21850586 66.24291992 100.21850586 66.24291992 99.64692688 69.03994751 C99.43485847 70.13041885 99.43485847 70.13041885 99.21850586 71.24291992 C99.54850586 71.57291992 99.87850586 71.90291992 100.21850586 72.24291992 C100.33265479 73.81181979 100.37808426 75.38578976 100.39550781 76.95874023 C100.41476067 78.46600677 100.41476067 78.46600677 100.43440247 80.00372314 C100.4417894 81.09843933 100.44917633 82.19315552 100.45678711 83.32104492 C100.46485886 84.4397699 100.4729306 85.55849487 100.48124695 86.71112061 C100.49510857 89.08514852 100.50582137 91.45919655 100.51367188 93.83325195 C100.53086738 97.46368299 100.5747342 101.0931997 100.61889648 104.72338867 C100.62902433 107.02676737 100.63754014 109.33015384 100.64428711 111.63354492 C100.6617952 112.72016418 100.67930328 113.80678345 100.69734192 114.92633057 C100.69441635 115.94378357 100.69149078 116.96123657 100.68847656 118.00952148 C100.6943428 118.90141174 100.70020905 119.793302 100.70625305 120.71221924 C100.0073738 124.33838916 99.03205782 125.82242333 96.21850586 128.24291992 C93.03735421 128.96242548 89.92538166 128.87463136 86.67651367 128.81054688 C85.22723228 128.81164207 85.22723228 128.81164207 83.74867249 128.8127594 C80.55575378 128.80927653 77.36429464 128.77038113 74.17163086 128.73120117 C71.95775143 128.72187557 69.74386169 128.71475826 67.52996826 128.70976257 C61.70342513 128.69067312 55.87750536 128.64155467 50.0512085 128.58624268 C44.10575798 128.5350927 38.16020674 128.51225756 32.21459961 128.48706055 C20.54896117 128.43343853 8.88378535 128.34810149 -2.78149414 128.24291992 C-3.44149414 126.92291992 -4.10149414 125.60291992 -4.78149414 124.24291992 C-5.56524414 124.28416992 -6.34899414 124.32541992 -7.15649414 124.36791992 C-9.78149414 124.24291992 -9.78149414 124.24291992 -11.78149414 122.24291992 C-12.08227539 119.71166992 -12.08227539 119.71166992 -12.09399414 116.74291992 C-12.11075195 115.76323242 -12.12750977 114.78354492 -12.14477539 113.77416992 C-12.02489258 112.93885742 -11.90500977 112.10354492 -11.78149414 111.24291992 C-8.78149414 109.24291992 -8.78149414 109.24291992 -4.78149414 109.24291992 C-4.12149414 107.92291992 -3.46149414 106.60291992 -2.78149414 105.24291992 C-0.47149414 105.24291992 1.83850586 105.24291992 4.21850586 105.24291992 C4.21850586 103.26291992 4.21850586 101.28291992 4.21850586 99.24291992 C3.10475586 99.30479492 1.99100586 99.36666992 0.84350586 99.43041992 C-0.35274414 99.36854492 -1.54899414 99.30666992 -2.78149414 99.24291992 C-5.49531497 95.17218867 -5.11277055 92.0196388 -5.09399414 87.24291992 C-5.11010742 86.42307617 -5.1262207 85.60323242 -5.14282227 84.75854492 C-5.1434668 83.96963867 -5.14411133 83.18073242 -5.14477539 82.36791992 C-5.14924683 81.28897461 -5.14924683 81.28897461 -5.15380859 80.18823242 C-4.66995273 77.66012519 -3.82517734 76.77144139 -1.78149414 75.24291992 C1.40600586 75.05541992 1.40600586 75.05541992 4.21850586 75.24291992 C3.55850586 74.25291992 2.89850586 73.26291992 2.21850586 72.24291992 C2.09350586 69.55541992 2.09350586 69.55541992 2.21850586 67.24291992 C1.04288086 67.33573242 1.04288086 67.33573242 -0.15649414 67.43041992 C-1.02274414 67.36854492 -1.88899414 67.30666992 -2.78149414 67.24291992 C-5.88712543 62.58447299 -5.22920371 57.63070431 -4.21899414 52.24291992 C-4.07461914 51.58291992 -3.93024414 50.92291992 -3.78149414 50.24291992 C-4.11149414 49.91291992 -4.44149414 49.58291992 -4.78149414 49.24291992 C-4.90802612 46.75053423 -4.96669239 44.29821551 -4.96899414 41.80541992 C-4.98124023 41.11125977 -4.99348633 40.41709961 -5.00610352 39.7019043 C-5.01139256 37.88071091 -4.90318621 36.06005072 -4.78149414 34.24291992 C-2.78149414 32.24291992 -2.78149414 32.24291992 -0.15649414 32.11791992 C0.62725586 32.15916992 1.41100586 32.20041992 2.21850586 32.24291992 C2.15663086 31.12916992 2.15663086 31.12916992 2.09350586 29.99291992 C2.2224872 27.1553304 2.78901808 25.65518055 4.21850586 23.24291992 C2.54788086 23.30479492 2.54788086 23.30479492 0.84350586 23.36791992 C-2.78149414 23.24291992 -2.78149414 23.24291992 -4.78149414 21.24291992 C-5.0402832 19.3034668 -5.0402832 19.3034668 -5.04711914 16.96166992 C-5.04969727 16.11991211 -5.05227539 15.2781543 -5.05493164 14.41088867 C-5.04719727 13.53045898 -5.03946289 12.6500293 -5.03149414 11.74291992 C-5.03922852 10.86249023 -5.04696289 9.98206055 -5.05493164 9.07495117 C-5.05106445 7.81231445 -5.05106445 7.81231445 -5.04711914 6.52416992 C-5.04486328 5.75137695 -5.04260742 4.97858398 -5.0402832 4.18237305 C-4.59046788 0.81130426 -3.22938512 0.28203618 0 0 Z " fill="#060808" transform="translate(19.781494140625,-0.242919921875)"/>
<path d="M0 0 C18.81 0 37.62 0 57 0 C57.495 4.455 57.495 4.455 58 9 C59.65 9.66 61.3 10.32 63 11 C63 33.77 63 56.54 63 80 C61.35 80.66 59.7 81.32 58 82 C57.94613371 84.12472576 57.90726929 86.24983652 57.875 88.375 C57.85179688 89.55835937 57.82859375 90.74171875 57.8046875 91.9609375 C57.67133771 95.11153817 57.67133771 95.11153817 60 97 C59.625 99.625 59.625 99.625 59 102 C57.515 102.495 57.515 102.495 56 103 C55.67 102.01 55.34 101.02 55 100 C35.695 99.505 35.695 99.505 16 99 C16 100.32 16 101.64 16 103 C15.01 103 14.02 103 13 103 C12.67 95.74 12.34 88.48 12 81 C9.36 81 6.72 81 4 81 C2.38219843 82.61780157 2.77727853 84.45635518 2.68359375 86.69140625 C2.64169922 87.63564453 2.59980469 88.57988281 2.55664062 89.55273438 C2.51732422 90.54595703 2.47800781 91.53917969 2.4375 92.5625 C2.39431641 93.55958984 2.35113281 94.55667969 2.30664062 95.58398438 C2.20019702 98.0558415 2.09818072 100.5278031 2 103 C1.34 103 0.68 103 0 103 C-0.1953125 100.94921875 -0.390625 98.8984375 -0.5859375 96.84765625 C-0.72257812 96.23792969 -0.85921875 95.62820312 -1 95 C-4.04213267 93.47893366 -7.28047572 93.62570662 -10.625 93.4375 C-11.68460938 93.37272461 -11.68460938 93.37272461 -12.765625 93.30664062 C-14.51018537 93.20055249 -16.25506697 93.09977111 -18 93 C-18 90.69 -18 88.38 -18 86 C-16.85660156 85.93941406 -15.71320312 85.87882812 -14.53515625 85.81640625 C-13.04425695 85.73201572 -11.55337225 85.64736698 -10.0625 85.5625 C-9.30775391 85.52318359 -8.55300781 85.48386719 -7.77539062 85.44335938 C-4.08055813 85.55961976 -4.08055813 85.55961976 -1 84 C-0.9016279 82.66956375 -0.86921408 81.33406656 -0.8671875 80 C-0.86589844 79.195625 -0.86460938 78.39125 -0.86328125 77.5625 C-0.86908203 76.2940625 -0.86908203 76.2940625 -0.875 75 C-0.87113281 74.154375 -0.86726563 73.30875 -0.86328125 72.4375 C-0.86521484 71.2309375 -0.86521484 71.2309375 -0.8671875 70 C-0.86831543 69.2575 -0.86944336 68.515 -0.87060547 67.75 C-0.81057784 65.97174189 -0.81057784 65.97174189 -2 65 C-4.69235776 64.76321284 -7.36498156 64.57801975 -10.0625 64.4375 C-10.82111328 64.39431641 -11.57972656 64.35113281 -12.36132812 64.30664062 C-14.24065438 64.20026367 -16.12030244 64.09960066 -18 64 C-18 63.01 -18 62.02 -18 61 C-13.05 60.505 -13.05 60.505 -8 60 C-7.505 57.03 -7.505 57.03 -7 54 C-5.02 53.34 -3.04 52.68 -1 52 C-1 42.1 -1 32.2 -1 22 C-2.98 21.34 -4.96 20.68 -7 20 C-7.33 18.35 -7.66 16.7 -8 15 C-11.3 14.67 -14.6 14.34 -18 14 C-18 13.01 -18 12.02 -18 11 C-9.585 10.505 -9.585 10.505 -1 10 C-0.67 6.7 -0.34 3.4 0 0 Z " fill="#72C6A8" transform="translate(46,12)"/>
<path d="M0 0 C5.97873264 0.11935764 5.97873264 0.11935764 7.08984375 1.23046875 C7.17684717 2.86519757 7.19685438 4.5036093 7.1875 6.140625 C7.18427734 7.12998047 7.18105469 8.11933594 7.17773438 9.13867188 C7.16935547 10.17958984 7.16097656 11.22050781 7.15234375 12.29296875 C7.14783203 13.33775391 7.14332031 14.38253906 7.13867188 15.45898438 C7.12684288 18.04953535 7.11036064 20.63997434 7.08984375 23.23046875 C8.07984375 23.23046875 9.06984375 23.23046875 10.08984375 23.23046875 C10.08984375 21.91046875 10.08984375 20.59046875 10.08984375 19.23046875 C15.6073918 19.15644082 21.12465231 19.10192509 26.64257812 19.06567383 C28.52055901 19.0505655 30.39850451 19.03007781 32.27636719 19.00415039 C34.97209394 18.96785629 37.66735521 18.9507633 40.36328125 18.9375 C41.62741348 18.91427422 41.62741348 18.91427422 42.91708374 18.89057922 C45.28271484 18.88989258 45.28271484 18.88989258 49.08984375 19.23046875 C49.74984375 20.22046875 50.40984375 21.21046875 51.08984375 22.23046875 C51.74984375 22.23046875 52.40984375 22.23046875 53.08984375 22.23046875 C53.41984375 20.58046875 53.74984375 18.93046875 54.08984375 17.23046875 C57.38984375 17.23046875 60.68984375 17.23046875 64.08984375 17.23046875 C64.14371004 19.35519451 64.18257446 21.48030527 64.21484375 23.60546875 C64.23804687 24.78882812 64.26125 25.9721875 64.28515625 27.19140625 C64.08984375 30.23046875 64.08984375 30.23046875 62.08984375 32.23046875 C59.26779175 32.47097778 59.26779175 32.47097778 55.62060547 32.45751953 C54.95707062 32.45781158 54.29353577 32.45810364 53.6098938 32.45840454 C51.41297403 32.45700931 49.21639189 32.44143942 47.01953125 32.42578125 C45.49781479 32.4220518 43.97609594 32.41920451 42.45437622 32.41720581 C38.44628283 32.40956398 34.43833405 32.38991088 30.43029785 32.36779785 C26.34157263 32.34735119 22.25282409 32.33820663 18.1640625 32.328125 C10.13925651 32.30666542 2.11456811 32.27252296 -5.91015625 32.23046875 C-5.91015625 29.26046875 -5.91015625 26.29046875 -5.91015625 23.23046875 C-5.25015625 23.23046875 -4.59015625 23.23046875 -3.91015625 23.23046875 C-3.9258667 22.29195068 -3.9258667 22.29195068 -3.94189453 21.33447266 C-3.98338816 18.50817865 -4.00946098 15.68194864 -4.03515625 12.85546875 C-4.05191406 11.870625 -4.06867187 10.88578125 -4.0859375 9.87109375 C-4.09238281 8.93007812 -4.09882812 7.9890625 -4.10546875 7.01953125 C-4.11594238 6.15021973 -4.12641602 5.2809082 -4.13720703 4.38525391 C-3.83240784 1.49261128 -2.94342249 0.35513687 0 0 Z " fill="#589C88" transform="translate(51.91015625,91.76953125)"/>
<path d="M0 0 C1.87171875 -0.00386719 1.87171875 -0.00386719 3.78125 -0.0078125 C5.74578125 0.00378906 5.74578125 0.00378906 7.75 0.015625 C9.0596875 0.00789063 10.369375 0.00015625 11.71875 -0.0078125 C12.9665625 -0.00523438 14.214375 -0.00265625 15.5 0 C16.64984375 0.00225586 17.7996875 0.00451172 18.984375 0.00683594 C21.75 0.265625 21.75 0.265625 23.75 2.265625 C24.00878906 5.03125 24.00878906 5.03125 24.015625 8.515625 C24.01949219 10.38734375 24.01949219 10.38734375 24.0234375 12.296875 C24.01570313 13.6065625 24.00796875 14.91625 24 16.265625 C24.01160156 18.23015625 24.01160156 18.23015625 24.0234375 20.234375 C24.02085938 21.4821875 24.01828125 22.73 24.015625 24.015625 C24.01336914 25.16546875 24.01111328 26.3153125 24.00878906 27.5 C23.75 30.265625 23.75 30.265625 21.75 32.265625 C17.28845192 32.72665573 12.79509362 32.58961294 8.3125 32.578125 C7.05888672 32.59423828 5.80527344 32.61035156 4.51367188 32.62695312 C3.31419922 32.62759766 2.11472656 32.62824219 0.87890625 32.62890625 C-0.22380615 32.63188721 -1.32651855 32.63486816 -2.46264648 32.63793945 C-5.25 32.265625 -5.25 32.265625 -7.11035156 31.12597656 C-8.76476661 28.42532476 -8.62179943 26.28775593 -8.61328125 23.13671875 C-8.61263672 21.93724609 -8.61199219 20.73777344 -8.61132812 19.50195312 C-8.59521484 18.24833984 -8.57910156 16.99472656 -8.5625 15.703125 C-8.56572266 14.44564453 -8.56894531 13.18816406 -8.57226562 11.89257812 C-8.50199404 0.01667992 -8.50199404 0.01667992 0 0 Z " fill="#E8D241" transform="translate(69.25,39.734375)"/>
<path d="M0 0 C15.84 0 31.68 0 48 0 C48 13.2 48 26.4 48 40 C32.16 40 16.32 40 0 40 C0 26.8 0 13.6 0 0 Z M8 6 C7.53896927 10.46154808 7.67601206 14.95490638 7.6875 19.4375 C7.67138672 20.69111328 7.65527344 21.94472656 7.63867188 23.23632812 C7.63802734 24.43580078 7.63738281 25.63527344 7.63671875 26.87109375 C7.63373779 27.97380615 7.63075684 29.07651855 7.62768555 30.21264648 C7.8033128 32.96075601 7.8033128 32.96075601 9.13964844 34.86035156 C11.84030024 36.51476661 13.97786907 36.37179943 17.12890625 36.36328125 C18.32837891 36.36263672 19.52785156 36.36199219 20.76367188 36.36132812 C22.6440918 36.3371582 22.6440918 36.3371582 24.5625 36.3125 C26.4487207 36.31733398 26.4487207 36.31733398 28.37304688 36.32226562 C34.77533147 36.77531413 34.77533147 36.77531413 40 34 C40.31198539 31.11912077 40.31198539 31.11912077 40.265625 27.75 C40.26820312 26.5021875 40.27078125 25.254375 40.2734375 23.96875 C40.26183594 22.00421875 40.26183594 22.00421875 40.25 20 C40.25773437 18.6903125 40.26546875 17.380625 40.2734375 16.03125 C40.27085938 14.7834375 40.26828125 13.535625 40.265625 12.25 C40.26336914 11.10015625 40.26111328 9.9503125 40.25878906 8.765625 C40.28343676 5.85800168 40.28343676 5.85800168 38 4 C35.11912077 3.68801461 35.11912077 3.68801461 31.75 3.734375 C30.5021875 3.73179688 29.254375 3.72921875 27.96875 3.7265625 C26.6590625 3.73429687 25.349375 3.74203125 24 3.75 C22.03546875 3.73839844 22.03546875 3.73839844 20.03125 3.7265625 C18.15953125 3.73042969 18.15953125 3.73042969 16.25 3.734375 C15.10015625 3.73663086 13.9503125 3.73888672 12.765625 3.74121094 C9.85800168 3.71656324 9.85800168 3.71656324 8 6 Z " fill="#EAE8EB" transform="translate(53,36)"/>
<path d="M0 0 C1.79715454 0.00616333 1.79715454 0.00616333 3.63061523 0.01245117 C4.92805664 0.01438477 6.22549805 0.01631836 7.56225586 0.01831055 C8.23893311 0.02451416 8.91561035 0.03071777 9.61279297 0.03710938 C11.68461369 0.0553794 13.75598795 0.05761897 15.82788086 0.05737305 C25.98662641 0.10283735 25.98662641 0.10283735 27.12670898 1.24291992 C27.37927775 5.21567807 27.31193349 9.20058167 27.31420898 13.18041992 C27.32645508 14.30383789 27.33870117 15.42725586 27.35131836 16.5847168 C27.35325195 17.65657227 27.35518555 18.72842773 27.35717773 19.83276367 C27.36128662 20.82139404 27.36539551 21.81002441 27.36962891 22.82861328 C27.12670898 25.24291992 27.12670898 25.24291992 25.12670898 27.24291992 C20.6651609 27.70395065 16.1718026 27.56690786 11.68920898 27.55541992 C10.4355957 27.5715332 9.18198242 27.58764648 7.89038086 27.60424805 C6.6909082 27.60489258 5.49143555 27.60553711 4.25561523 27.60620117 C3.15290283 27.60918213 2.05019043 27.61216309 0.9140625 27.61523438 C-1.87329102 27.24291992 -1.87329102 27.24291992 -3.73364258 26.03491211 C-5.25134148 23.64847039 -5.24598128 22.0271617 -5.23657227 19.20776367 C-5.23592773 18.23387695 -5.2352832 17.25999023 -5.23461914 16.2565918 C-5.21850586 15.24145508 -5.20239258 14.22631836 -5.18579102 13.18041992 C-5.18901367 12.16141602 -5.19223633 11.14241211 -5.19555664 10.0925293 C-5.12514477 0.43330096 -5.12514477 0.43330096 0 0 Z " fill="#211B12" transform="translate(65.873291015625,81.757080078125)"/>
<path d="M0 0 C0.99120346 -0.00953201 1.98240692 -0.01906403 3.00364685 -0.02888489 C4.07760208 -0.02797348 5.15155731 -0.02706207 6.25805664 -0.02612305 C7.35791397 -0.03040817 8.4577713 -0.0346933 9.59095764 -0.03910828 C11.92033194 -0.04485926 14.24972419 -0.04534622 16.57910156 -0.04101562 C20.15013174 -0.03785779 23.72033225 -0.06129877 27.29125977 -0.08666992 C29.55102434 -0.08894297 31.81079115 -0.08964638 34.07055664 -0.08862305 C35.14248764 -0.09783279 36.21441864 -0.10704254 37.3188324 -0.11653137 C38.31318802 -0.11030258 39.30754364 -0.10407379 40.33203125 -0.09765625 C41.20758163 -0.09828568 42.08313202 -0.0989151 42.98521423 -0.0995636 C45.23071289 0.2746582 45.23071289 0.2746582 47.01361084 1.53765869 C48.51116204 3.67490404 48.60525462 4.84364784 48.60302734 7.43896484 C48.61237053 8.69024925 48.61237053 8.69024925 48.62190247 9.96681213 C48.61269272 10.8637529 48.60348297 11.76069366 48.59399414 12.68481445 C48.5947419 14.069683 48.5947419 14.069683 48.59550476 15.48252869 C48.59316468 17.4335241 48.58344006 19.38452256 48.56689453 21.33544922 C48.54327622 24.32913048 48.54633721 27.32192294 48.55297852 30.31567383 C48.5474027 32.20955937 48.54029343 34.10344115 48.53149414 35.99731445 C48.53286125 37.34576195 48.53286125 37.34576195 48.53425598 38.72145081 C48.52472397 39.55248825 48.51519196 40.3835257 48.50537109 41.23974609 C48.5007637 41.97238174 48.49615631 42.7050174 48.4914093 43.45985413 C48.23071289 45.2746582 48.23071289 45.2746582 46.23071289 47.2746582 C44.06750488 47.52862549 44.06750488 47.52862549 41.35375977 47.53344727 C39.83208191 47.54290375 39.83208191 47.54290375 38.27966309 47.55255127 C37.18069702 47.54850281 36.08173096 47.54445435 34.94946289 47.5402832 C33.82503784 47.54219666 32.70061279 47.54411011 31.54211426 47.54608154 C29.16145606 47.54744437 26.78079046 47.54374115 24.40014648 47.53540039 C20.74584336 47.5247025 17.09203189 47.53529265 13.43774414 47.5480957 C11.1291493 47.54677413 8.82055477 47.54421177 6.51196289 47.5402832 C4.86351379 47.5463559 4.86351379 47.5463559 3.1817627 47.55255127 C2.16731079 47.54624695 1.15285889 47.53994263 0.10766602 47.53344727 C-1.23563782 47.53106049 -1.23563782 47.53106049 -2.6060791 47.52862549 C-4.76928711 47.2746582 -4.76928711 47.2746582 -6.76928711 45.2746582 C-7.02325439 43.41516113 -7.02325439 43.41516113 -7.02807617 41.13208008 C-7.03438049 40.27779419 -7.04068481 39.4235083 -7.04718018 38.54333496 C-7.04313171 37.61935913 -7.03908325 36.6953833 -7.03491211 35.7434082 C-7.03682556 34.79655151 -7.03873901 33.84969482 -7.04071045 32.87414551 C-7.04207284 30.87011449 -7.03837267 28.86607466 -7.0300293 26.86206055 C-7.01933058 23.78715267 -7.02992283 20.71282907 -7.04272461 17.63793945 C-7.04140302 15.69392774 -7.03884065 13.74991639 -7.03491211 11.8059082 C-7.0409848 10.41994446 -7.0409848 10.41994446 -7.04718018 9.00598145 C-7.04087585 8.15169556 -7.03457153 7.29740967 -7.02807617 6.41723633 C-7.02648499 5.66381958 -7.0248938 4.91040283 -7.02325439 4.13415527 C-6.44083981 -0.13016647 -3.59890699 0.01895568 0 0 Z M-3.76928711 4.2746582 C-3.76928711 17.4746582 -3.76928711 30.6746582 -3.76928711 44.2746582 C12.07071289 44.2746582 27.91071289 44.2746582 44.23071289 44.2746582 C44.23071289 31.0746582 44.23071289 17.8746582 44.23071289 4.2746582 C28.39071289 4.2746582 12.55071289 4.2746582 -3.76928711 4.2746582 Z " fill="#070C0A" transform="translate(56.769287109375,31.725341796875)"/>
<path d="M0 0 C7.59 0 15.18 0 23 0 C23 8.91 23 17.82 23 27 C15.41 27 7.82 27 0 27 C0 24.36 0 21.72 0 19 C-0.66 19 -1.32 19 -2 19 C-2.042721 17.33388095 -2.04063832 15.66617115 -2 14 C-1.67 13.67 -1.34 13.34 -1 13 C-0.76518307 10.81707226 -0.58636677 8.62796826 -0.4375 6.4375 C-0.293125 4.313125 -0.14875 2.18875 0 0 Z " fill="#3F6E90" transform="translate(19,36)"/>
<path d="M0 0 C1.87171875 -0.00386719 1.87171875 -0.00386719 3.78125 -0.0078125 C5.74578125 0.00378906 5.74578125 0.00378906 7.75 0.015625 C9.0596875 0.00789063 10.369375 0.00015625 11.71875 -0.0078125 C12.9665625 -0.00523438 14.214375 -0.00265625 15.5 0 C16.64984375 0.00225586 17.7996875 0.00451172 18.984375 0.00683594 C21.75 0.265625 21.75 0.265625 23.75 2.265625 C24.00878906 5.03125 24.00878906 5.03125 24.015625 8.515625 C24.01949219 10.38734375 24.01949219 10.38734375 24.0234375 12.296875 C24.01570313 13.6065625 24.00796875 14.91625 24 16.265625 C24.01160156 18.23015625 24.01160156 18.23015625 24.0234375 20.234375 C24.02085938 21.4821875 24.01828125 22.73 24.015625 24.015625 C24.01336914 25.16546875 24.01111328 26.3153125 24.00878906 27.5 C23.75 30.265625 23.75 30.265625 21.75 32.265625 C17.28845192 32.72665573 12.79509362 32.58961294 8.3125 32.578125 C7.05888672 32.59423828 5.80527344 32.61035156 4.51367188 32.62695312 C3.31419922 32.62759766 2.11472656 32.62824219 0.87890625 32.62890625 C-0.22380615 32.63188721 -1.32651855 32.63486816 -2.46264648 32.63793945 C-5.25 32.265625 -5.25 32.265625 -7.11035156 31.12597656 C-8.76476661 28.42532476 -8.62179943 26.28775593 -8.61328125 23.13671875 C-8.61263672 21.93724609 -8.61199219 20.73777344 -8.61132812 19.50195312 C-8.59521484 18.24833984 -8.57910156 16.99472656 -8.5625 15.703125 C-8.56572266 14.44564453 -8.56894531 13.18816406 -8.57226562 11.89257812 C-8.50199404 0.01667992 -8.50199404 0.01667992 0 0 Z M-4.25 3.265625 C-4.25 11.515625 -4.25 19.765625 -4.25 28.265625 C4 28.265625 12.25 28.265625 20.75 28.265625 C20.75 20.015625 20.75 11.765625 20.75 3.265625 C12.5 3.265625 4.25 3.265625 -4.25 3.265625 Z " fill="#0E0D0D" transform="translate(69.25,39.734375)"/>
<path d="M0 0 C1.65 0 3.3 0 5 0 C5.33 0.66 5.66 1.32 6 2 C8.97 2.495 8.97 2.495 12 3 C12 7.95 12 12.9 12 18 C4.41 18 -3.18 18 -11 18 C-11 12.72 -11 7.44 -11 2 C-7.37 2 -3.74 2 0 2 C0 1.34 0 0.68 0 0 Z " fill="#EEEBEE" transform="translate(30,1)"/>
<path d="M0 0 C7.59 0 15.18 0 23 0 C23 4.95 23 9.9 23 15 C15.41 15 7.82 15 0 15 C0 10.05 0 5.1 0 0 Z " fill="#ECE9EC" transform="translate(19,109)"/>
<path d="M0 0 C0.33 0 0.66 0 1 0 C1 12.21 1 24.42 1 37 C3.97 37 6.94 37 10 37 C10.33 36.34 10.66 35.68 11 35 C20.24 35 29.48 35 39 35 C39 35.66 39 36.32 39 37 C41.475 36.505 41.475 36.505 44 36 C44.33 24.12 44.66 12.24 45 0 C45.99 0 46.98 0 48 0 C48 13.2 48 26.4 48 40 C32.16 40 16.32 40 0 40 C0 26.8 0 13.6 0 0 Z " fill="#C2BFCD" transform="translate(53,36)"/>
<path d="M0 0 C7.59 0 15.18 0 23 0 C23 4.95 23 9.9 23 15 C19.37 15 15.74 15 12 15 C12 13.35 12 11.7 12 10 C9.69 10.33 7.38 10.66 5 11 C5 11.66 5 12.32 5 13 C7.97 13.495 7.97 13.495 11 14 C11 14.33 11 14.66 11 15 C7.37 15.33 3.74 15.66 0 16 C0 10.72 0 5.44 0 0 Z " fill="#DAD8DC" transform="translate(19,79)"/>
<path d="M0 0 C0.721875 0.00257812 1.44375 0.00515625 2.1875 0.0078125 C2.909375 0.00523438 3.63125 0.00265625 4.375 0 C6.1875 0.1328125 6.1875 0.1328125 7.1875 1.1328125 C7.28721786 3.04739532 7.31830589 4.96563567 7.3203125 6.8828125 C7.32224609 8.63078125 7.32224609 8.63078125 7.32421875 10.4140625 C7.32035156 11.64125 7.31648438 12.8684375 7.3125 14.1328125 C7.31636719 15.36 7.32023437 16.5871875 7.32421875 17.8515625 C7.32292969 19.016875 7.32164063 20.1821875 7.3203125 21.3828125 C7.31918457 22.46046875 7.31805664 23.538125 7.31689453 24.6484375 C7.1875 27.1328125 7.1875 27.1328125 6.1875 28.1328125 C4.66821962 28.20461214 3.14582518 28.21673257 1.625 28.1953125 C0.79871094 28.18628906 -0.02757812 28.17726563 -0.87890625 28.16796875 C-1.83603516 28.15056641 -1.83603516 28.15056641 -2.8125 28.1328125 C-2.84136338 23.65365922 -2.85925187 19.17452959 -2.875 14.6953125 C-2.88337891 13.41591797 -2.89175781 12.13652344 -2.90039062 10.81835938 C-2.90361328 9.60341797 -2.90683594 8.38847656 -2.91015625 7.13671875 C-2.91539307 6.01080322 -2.92062988 4.8848877 -2.92602539 3.72485352 C-2.77178095 0.20310464 -2.77178095 0.20310464 0 0 Z " fill="#090B0B" transform="translate(51.8125,91.8671875)"/>
<path d="M0 0 C1.1653125 0.00515625 2.330625 0.0103125 3.53125 0.015625 C4.6965625 0.01046875 5.861875 0.0053125 7.0625 0 C10.03125 0.265625 10.03125 0.265625 12.03125 2.265625 C12.296875 5.015625 12.296875 5.015625 12.28125 8.265625 C12.28640625 9.338125 12.2915625 10.410625 12.296875 11.515625 C12.03125 14.265625 12.03125 14.265625 10.03125 16.265625 C7.0625 16.53125 7.0625 16.53125 3.53125 16.515625 C2.3659375 16.52078125 1.200625 16.5259375 0 16.53125 C-2.96875 16.265625 -2.96875 16.265625 -4.96875 14.265625 C-5.234375 11.515625 -5.234375 11.515625 -5.21875 8.265625 C-5.22390625 7.193125 -5.2290625 6.120625 -5.234375 5.015625 C-4.85209055 1.05785659 -3.93121356 0.35174016 0 0 Z " fill="#0F1008" transform="translate(73.96875,47.734375)"/>
<path d="M0 0 C0.99 0 1.98 0 3 0 C3.02505615 1.29736084 3.0501123 2.59472168 3.07592773 3.93139648 C3.16981752 8.72658856 3.27008249 13.5216295 3.37231445 18.31665039 C3.41573334 20.39539057 3.45740312 22.47416803 3.49731445 24.55297852 C3.55484921 27.53413145 3.61859119 30.51509549 3.68359375 33.49609375 C3.70030624 34.43150497 3.71701874 35.3669162 3.73423767 36.33067322 C3.75418289 37.19149002 3.77412811 38.05230682 3.79467773 38.93920898 C3.81022202 39.70087875 3.8257663 40.46254852 3.84178162 41.24729919 C3.81379329 43.02735006 3.81379329 43.02735006 5 44 C5.04063832 45.66617115 5.042721 47.33388095 5 49 C4.34 49 3.68 49 3 49 C3 55.93 3 62.86 3 70 C2.01 70 1.02 70 0 70 C0 46.9 0 23.8 0 0 Z " fill="#599D89" transform="translate(113,23)"/>
<path d="M0 0 C0.99 0 1.98 0 3 0 C3 22.77 3 45.54 3 69 C2.01 69 1.02 69 0 69 C0 46.23 0 23.46 0 0 Z " fill="#67B69E" transform="translate(106,23)"/>
<path d="M0 0 C0.9075 0.00257812 1.815 0.00515625 2.75 0.0078125 C4.11125 0.00394531 4.11125 0.00394531 5.5 0 C7.75 0.1328125 7.75 0.1328125 8.75 1.1328125 C8.84909302 3.46441305 8.87970504 5.79911192 8.875 8.1328125 C8.87757812 9.4115625 8.88015625 10.6903125 8.8828125 12.0078125 C8.75 15.1328125 8.75 15.1328125 7.75 16.1328125 C6.08570949 16.23105187 4.41718069 16.26254881 2.75 16.2578125 C1.38875 16.26167969 1.38875 16.26167969 0 16.265625 C-2.25 16.1328125 -2.25 16.1328125 -3.25 15.1328125 C-3.34909302 12.80121195 -3.37970504 10.46651308 -3.375 8.1328125 C-3.37757812 6.8540625 -3.38015625 5.5753125 -3.3828125 4.2578125 C-3.2099081 0.18947374 -3.2099081 0.18947374 0 0 Z " fill="#0B0C0C" transform="translate(88.25,13.8671875)"/>
<path d="M0 0 C0.9075 0.00257812 1.815 0.00515625 2.75 0.0078125 C4.11125 0.00394531 4.11125 0.00394531 5.5 0 C7.75 0.1328125 7.75 0.1328125 8.75 1.1328125 C8.84909302 3.46441305 8.87970504 5.79911192 8.875 8.1328125 C8.87757812 9.4115625 8.88015625 10.6903125 8.8828125 12.0078125 C8.75 15.1328125 8.75 15.1328125 7.75 16.1328125 C6.08570949 16.23105187 4.41718069 16.26254881 2.75 16.2578125 C1.38875 16.26167969 1.38875 16.26167969 0 16.265625 C-2.25 16.1328125 -2.25 16.1328125 -3.25 15.1328125 C-3.34909302 12.80121195 -3.37970504 10.46651308 -3.375 8.1328125 C-3.37757812 6.8540625 -3.38015625 5.5753125 -3.3828125 4.2578125 C-3.2099081 0.18947374 -3.2099081 0.18947374 0 0 Z " fill="#010101" transform="translate(63.25,13.8671875)"/>
<path d="M0 0 C8.25 0 16.5 0 25 0 C25 2.31 25 4.62 25 7 C16.75 7 8.5 7 0 7 C0 4.69 0 2.38 0 0 Z " fill="#ECB780" transform="translate(65,92)"/>
<path d="M0 0 C8.25 0 16.5 0 25 0 C25 8.25 25 16.5 25 25 C16.75 25 8.5 25 0 25 C0 24.01 0 23.02 0 22 C10.395 21.505 10.395 21.505 21 21 C21.33 14.4 21.66 7.8 22 1 C14.74 1 7.48 1 0 1 C0 0.67 0 0.34 0 0 Z " fill="#CAA929" transform="translate(65,43)"/>
<path d="M0 0 C12.87 0 25.74 0 39 0 C39 1.32 39 2.64 39 4 C26.13 4 13.26 4 0 4 C0 2.68 0 1.36 0 0 Z " fill="#0A120F" transform="translate(62,111)"/>
<path d="M0 0 C0.06058594 0.62648438 0.12117188 1.25296875 0.18359375 1.8984375 C0.30927734 3.12433594 0.30927734 3.12433594 0.4375 4.375 C0.55931641 5.59316406 0.55931641 5.59316406 0.68359375 6.8359375 C0.89090114 9.04272805 0.89090114 9.04272805 2 11 C1.72057545 12.67654729 1.39171753 14.34608154 1 16 C0.21625 15.814375 -0.5675 15.62875 -1.375 15.4375 C-3.97089775 14.74037734 -3.97089775 14.74037734 -6 16 C-6.33 11.71 -6.66 7.42 -7 3 C-9.97 2.67 -12.94 2.34 -16 2 C-16 1.67 -16 1.34 -16 1 C-10.62915894 0.31798844 -5.41499441 -0.11521265 0 0 Z " fill="#5B9D86" transform="translate(103,12)"/>
<path d="M0 0 C0.66 0 1.32 0 2 0 C2 8.91 2 17.82 2 27 C-5.59 27 -13.18 27 -21 27 C-21 24.69 -21 22.38 -21 20 C-20.67 20 -20.34 20 -20 20 C-20 21.65 -20 23.3 -20 25 C-17.02046641 24.85982174 -14.04150696 24.71313658 -11.0625 24.5625 C-10.21236328 24.52318359 -9.36222656 24.48386719 -8.48632812 24.44335938 C-7.67744141 24.40146484 -6.86855469 24.35957031 -6.03515625 24.31640625 C-4.91185913 24.26141968 -4.91185913 24.26141968 -3.76586914 24.20532227 C-1.97538674 24.18228937 -1.97538674 24.18228937 -1 23 C-0.84259395 21.29436222 -0.74906608 19.58272756 -0.68359375 17.87109375 C-0.64169922 16.83662109 -0.59980469 15.80214844 -0.55664062 14.73632812 C-0.51732422 13.64771484 -0.47800781 12.55910156 -0.4375 11.4375 C-0.39431641 10.34501953 -0.35113281 9.25253906 -0.30664062 8.12695312 C-0.20017932 5.41810436 -0.09816484 2.70916008 0 0 Z " fill="#325875" transform="translate(40,36)"/>
<path d="M0 0 C3.3 0 6.6 0 10 0 C10 0.33 10 0.66 10 1 C7.03 1 4.06 1 1 1 C1 5.29 1 9.58 1 14 C7.27 13.67 13.54 13.34 20 13 C20.33 9.04 20.66 5.08 21 1 C21.66 1 22.32 1 23 1 C23 5.95 23 10.9 23 16 C15.41 16 7.82 16 0 16 C0 10.72 0 5.44 0 0 Z " fill="#C3C0CE" transform="translate(19,3)"/>
<path d="M0 0 C3.3 0 6.6 0 10 0 C10 2.97 10 5.94 10 9 C6.7 9 3.4 9 0 9 C0 6.03 0 3.06 0 0 Z " fill="#BDBBC8" transform="translate(106,10)"/>
<path d="M0 0 C2.97 0 5.94 0 9 0 C9 2.97 9 5.94 9 9 C6.03 9 3.06 9 0 9 C0 6.03 0 3.06 0 0 Z " fill="#CAC7D4" transform="translate(106,96)"/>
<path d="M0 0 C2.97 0 5.94 0 9 0 C9 2.97 9 5.94 9 9 C6.03 9 3.06 9 0 9 C0 6.03 0 3.06 0 0 Z " fill="#77CFB0" transform="translate(73,51)"/>
<path d="M0 0 C7.92 0 15.84 0 24 0 C24 0.99 24 1.98 24 3 C16.08 3 8.16 3 0 3 C0 2.01 0 1.02 0 0 Z " fill="#DBA874" transform="translate(65,85)"/>
<path d="M0 0 C8.25 0 16.5 0 25 0 C25 2.31 25 4.62 25 7 C16.75 7 8.5 7 0 7 C0 4.69 0 2.38 0 0 Z M1 1 C1 2.65 1 4.3 1 6 C7.93 6 14.86 6 22 6 C22 4.35 22 2.7 22 1 C15.07 1 8.14 1 1 1 Z " fill="#CE9D69" transform="translate(65,92)"/>
<path d="M0 0 C0.33 0 0.66 0 1 0 C1 4.29 1 8.58 1 13 C1.99 13 2.98 13 4 13 C4.33 11.68 4.66 10.36 5 9 C6.98 9 8.96 9 11 9 C11.38218767 10.65614657 11.71395102 12.32457024 12 14 C11 15 11 15 8.49609375 15.09765625 C5.6640625 15.06510417 2.83203125 15.03255208 0 15 C0 10.05 0 5.1 0 0 Z " fill="#BCBAC5" transform="translate(19,109)"/>
<path d="M0 0 C0.99 0 1.98 0 3 0 C3 6.93 3 13.86 3 21 C2.01 21 1.02 21 0 21 C0 14.07 0 7.14 0 0 Z " fill="#DFDCE7" transform="translate(52,96)"/>
<path d="M0 0 C1.98 0 3.96 0 6 0 C6 3.3 6 6.6 6 10 C4.02 10 2.04 10 0 10 C0 6.7 0 3.4 0 0 Z " fill="#2F516C" transform="translate(63,17)"/>
<path d="M0 0 C0.66 0 1.32 0 2 0 C2 4.95 2 9.9 2 15 C-1.96 15 -5.92 15 -10 15 C-9.67 13.35 -9.34 11.7 -9 10 C-8.67 10.99 -8.34 11.98 -8 13 C-4.535 12.505 -4.535 12.505 -1 12 C-0.67 8.04 -0.34 4.08 0 0 Z " fill="#DAD8E9" transform="translate(40,109)"/>
<path d="M0 0 C2.31 0 4.62 0 7 0 C7 1.65 7 3.3 7 5 C10.63 5 14.26 5 18 5 C18 5.33 18 5.66 18 6 C10.74 6 3.48 6 -4 6 C-2.68 5.34 -1.36 4.68 0 4 C0 2.68 0 1.36 0 0 Z " fill="#A19EAB" transform="translate(24,89)"/>
<path d="M0 0 C0.66 0 1.32 0 2 0 C2 4.62 2 9.24 2 14 C-1.63 14 -5.26 14 -9 14 C-8.67 12.68 -8.34 11.36 -8 10 C-8 10.66 -8 11.32 -8 12 C-4.535 11.505 -4.535 11.505 -1 11 C-0.67 7.37 -0.34 3.74 0 0 Z " fill="#DCD8E9" transform="translate(40,80)"/>
<path d="M0 0 C1.65 0 3.3 0 5 0 C5 2.97 5 5.94 5 9 C3.35 9 1.7 9 0 9 C0 6.03 0 3.06 0 0 Z " fill="#D4D2DD" transform="translate(89,17)"/>
<path d="M0 0 C1.98 0 3.96 0 6 0 C6.04254356 1.99954746 6.04080783 4.00041636 6 6 C5 7 5 7 2.4375 7.0625 C1.2309375 7.0315625 1.2309375 7.0315625 0 7 C0 4.69 0 2.38 0 0 Z " fill="#EEEBEE" transform="translate(107,10)"/>
<path d="M0 0 C3.3 0 6.6 0 10 0 C10 1.32 10 2.64 10 4 C6.7 4 3.4 4 0 4 C0 2.68 0 1.36 0 0 Z " fill="#9B999D" transform="translate(26,29)"/>
<path d="M0 0 C2.97 0 5.94 0 9 0 C9 2.97 9 5.94 9 9 C6.03 9 3.06 9 0 9 C0 8.34 0 7.68 0 7 C2.31 7 4.62 7 7 7 C7 5.02 7 3.04 7 1 C4.69 1 2.38 1 0 1 C0 0.67 0 0.34 0 0 Z " fill="#63AE97" transform="translate(73,51)"/>
<path d="M0 0 C1.98 0 3.96 0 6 0 C6.042721 1.66611905 6.04063832 3.33382885 6 5 C5 6 5 6 2.4375 6.0625 C1.2309375 6.0315625 1.2309375 6.0315625 0 6 C0 4.02 0 2.04 0 0 Z " fill="#EEEBEE" transform="translate(107,97)"/>
<path d="M0 0 C1.98 0 3.96 0 6 0 C6.33 1.32 6.66 2.64 7 4 C4.36 4 1.72 4 -1 4 C-0.67 2.68 -0.34 1.36 0 0 Z " fill="#1D1C1D" transform="translate(24,118)"/>
<path d="M0 0 C2.31 0 4.62 0 7 0 C7 1.32 7 2.64 7 4 C4.69 4 2.38 4 0 4 C0 2.68 0 1.36 0 0 Z " fill="#191919" transform="translate(24,111)"/>
<path d="M0 0 C3.3 0 6.6 0 10 0 C10 0.99 10 1.98 10 3 C6.7 3 3.4 3 0 3 C0 2.01 0 1.02 0 0 Z " fill="#B9B7C1" transform="translate(26,66)"/>
<path d="M0 0 C1.32 0 2.64 0 4 0 C4 2.31 4 4.62 4 7 C2.68 7 1.36 7 0 7 C0 4.69 0 2.38 0 0 Z " fill="#4D88B4" transform="translate(12,113)"/>
<path d="M0 0 C2.64 0 5.28 0 8 0 C8 0.99 8 1.98 8 3 C5.36 3 2.72 3 0 3 C0 2.01 0 1.02 0 0 Z " fill="#070607" transform="translate(23,82)"/>
<path d="M0 0 C2.31 0 4.62 0 7 0 C7 0.99 7 1.98 7 3 C4.36 3 1.72 3 -1 3 C-0.67 2.01 -0.34 1.02 0 0 Z " fill="#040304" transform="translate(24,89)"/>
<path d="M0 0 C1.98 0.495 1.98 0.495 4 1 C4 1.99 4 2.98 4 4 C2.35 3.67 0.7 3.34 -1 3 C-0.67 2.01 -0.34 1.02 0 0 Z " fill="#0D1714" transform="translate(52,85)"/>
<path d="M0 0 C1.32 0 2.64 0 4 0 C3.67 1.32 3.34 2.64 3 4 C1.68 3.67 0.36 3.34 -1 3 C-0.67 2.01 -0.34 1.02 0 0 Z " fill="#0E1814" transform="translate(52,24)"/>
<path d="M0 0 C2.475 0.495 2.475 0.495 5 1 C4.67 1.99 4.34 2.98 4 4 C2.68 3.67 1.36 3.34 0 3 C0 2.01 0 1.02 0 0 Z " fill="#0F1A16" transform="translate(76,16)"/>
<path d="M0 0 C1.32 0 2.64 0 4 0 C3.67 1.32 3.34 2.64 3 4 C1.68 3.67 0.36 3.34 -1 3 C-0.67 2.01 -0.34 1.02 0 0 Z " fill="#0E1815" transform="translate(52,16)"/>
</svg>
